<svg width="42" height="43" viewBox="0 0 42 43" fill="none" xmlns="http://www.w3.org/2000/svg">
<path d="M27.1318 31.1672L30.4892 27.8099L40.3215 37.6421C41.2486 38.5693 41.2486 40.0724 40.3215 40.9995C39.3944 41.9266 37.8912 41.9266 36.9641 40.9995L27.1318 31.1672Z" fill="#00487C"/>
<path d="M27.1318 29.8106L30.4892 26.4533L40.3215 36.2855C41.2486 37.2127 41.2486 38.7158 40.3215 39.6429C39.3944 40.57 37.8912 40.57 36.9641 39.6429L27.1318 29.8106Z" fill="#BFDEF2"/>
<circle cx="16.6181" cy="16.6181" r="16.6181" fill="#00487C"/>
<circle cx="16.9573" cy="16.2789" r="15.6007" fill="#BFDEF2"/>
<circle cx="16.9573" cy="16.279" r="12.8875" fill="#80BCE6"/>
<circle cx="16.9572" cy="16.2789" r="11.5309" fill="white"/>
<path d="M13.5659 14.244H21.3662" stroke="#C9E9FF" stroke-width="0.2"/>
<path d="M13.5659 13.5658H18.6531" stroke="#027BCE" stroke-width="0.2"/>
<path d="M13.5659 14.9224H21.3662" stroke="#027BCE" stroke-width="0.2"/>
<path d="M13.5659 15.6006H21.3662" stroke="#4BB3FD" stroke-width="0.2"/>
<path d="M13.5659 16.2789H21.3662" stroke="#027BCE" stroke-width="0.2"/>
<path d="M13.5659 16.9572H21.3662" stroke="#4BB3FD" stroke-width="0.2"/>
<path d="M13.5659 17.6355H21.3662" stroke="#027BCE" stroke-width="0.2"/>
<path d="M13.5659 18.3138H21.3662" stroke="#C9E9FF" stroke-width="0.2"/>
<path d="M13.5659 18.9921H21.3662" stroke="#4BB3FD" stroke-width="0.2"/>
<path d="M13.5659 19.6704H18.9922" stroke="#027BCE" stroke-width="0.2"/>
<path d="M22.401 8.81775H13.2092C12.6569 8.81775 12.2092 9.26546 12.2092 9.81775V21.7227C12.2092 22.275 12.6569 22.7227 13.2092 22.7227H22.401C22.9533 22.7227 23.401 22.275 23.401 21.7227V9.81775C23.401 9.26546 22.9533 8.81775 22.401 8.81775Z" stroke="#00487C" stroke-width="0.4"/>
<path d="M12.1512 9.49603V9.49603C11.8087 9.49603 11.531 9.77368 11.531 10.1162V22.2237C11.531 23.0585 12.2125 23.7327 13.0473 23.7237L21.5659 23.6312C21.9617 23.6269 22.2948 23.3339 22.3496 22.9419L22.3836 22.6979" stroke="#00487C" stroke-width="0.2"/>
<path d="M11.4727 10.1743V10.1743C11.1302 10.1743 10.8525 10.4519 10.8525 10.7944V22.902C10.8525 23.7368 11.5341 24.411 12.3688 24.4019L21.014 24.3081C21.3253 24.3047 21.5759 24.0514 21.5759 23.7401V23.7401" stroke="#00487C" stroke-width="0.1"/>
<g clip-path="url(#clip0_179_149)">
<path d="M20.6707 17.2726L22.1087 15.3531L24.988 12.9553C25.1203 12.823 25.3407 12.823 25.4662 12.9553L25.707 13.1961C25.8393 13.3216 25.8393 13.542 25.707 13.6743L23.3093 16.5536L21.3897 17.9916L20.6707 17.2726ZM21.1489 18.2324L20.4299 17.5134L19.4701 17.9916L18.9919 19.4296L19.7109 18.7106C19.7788 18.6529 19.8839 18.6529 19.9517 18.7106C20.0094 18.7784 20.0094 18.8836 19.9517 18.9514L19.2327 19.6704L20.6707 19.1922L21.1489 18.2324Z" fill="#4BB3FD"/>
</g>
<path d="M15.2972 11.87C15.2732 11.87 15.2446 11.8687 15.2112 11.866C15.1779 11.8634 15.1439 11.8587 15.1092 11.852V11.608C15.1359 11.6134 15.1612 11.6174 15.1852 11.62C15.2092 11.6227 15.2286 11.624 15.2432 11.624C15.3046 11.624 15.3479 11.6067 15.3732 11.572C15.3986 11.5374 15.4112 11.4814 15.4112 11.404V10.086H15.7232V11.404C15.7232 11.508 15.7086 11.5947 15.6792 11.664C15.6512 11.7334 15.6059 11.7847 15.5432 11.818C15.4819 11.8527 15.3999 11.87 15.2972 11.87ZM15.969 10.79C15.969 10.6434 15.9963 10.516 16.051 10.408C16.107 10.2987 16.187 10.214 16.291 10.154C16.395 10.094 16.5183 10.064 16.661 10.064C16.8036 10.064 16.927 10.094 17.031 10.154C17.135 10.214 17.215 10.2987 17.271 10.408C17.3283 10.516 17.357 10.6427 17.357 10.788C17.357 10.936 17.3283 11.0647 17.271 11.174C17.215 11.282 17.135 11.3667 17.031 11.428C16.927 11.488 16.8036 11.518 16.661 11.518C16.5183 11.518 16.395 11.488 16.291 11.428C16.1883 11.3667 16.109 11.2814 16.053 11.172C15.997 11.0627 15.969 10.9354 15.969 10.79ZM16.295 10.79C16.295 10.9354 16.325 11.0494 16.385 11.132C16.4463 11.2134 16.5383 11.254 16.661 11.254C16.781 11.254 16.8723 11.2134 16.935 11.132C16.9976 11.0494 17.029 10.9354 17.029 10.79C17.029 10.6434 16.9976 10.53 16.935 10.45C16.8736 10.3687 16.7823 10.328 16.661 10.328C16.5383 10.328 16.4463 10.3687 16.385 10.45C16.325 10.53 16.295 10.6434 16.295 10.79ZM17.6008 11.496V10.086H18.2508C18.4055 10.086 18.5248 10.1187 18.6088 10.184C18.6928 10.2494 18.7348 10.3387 18.7348 10.452C18.7348 10.536 18.7095 10.6074 18.6588 10.666C18.6095 10.7247 18.5415 10.764 18.4548 10.784V10.752C18.5561 10.7694 18.6341 10.808 18.6888 10.868C18.7448 10.9267 18.7728 11.0034 18.7728 11.098C18.7728 11.2234 18.7281 11.3214 18.6388 11.392C18.5508 11.4614 18.4288 11.496 18.2728 11.496H17.6008ZM17.8988 11.264H18.2348C18.3121 11.264 18.3715 11.2494 18.4128 11.22C18.4541 11.1907 18.4748 11.144 18.4748 11.08C18.4748 11.0147 18.4541 10.968 18.4128 10.94C18.3715 10.9107 18.3121 10.896 18.2348 10.896H17.8988V11.264ZM17.8988 10.666H18.1948C18.2761 10.666 18.3361 10.6514 18.3748 10.622C18.4135 10.5927 18.4328 10.5487 18.4328 10.49C18.4328 10.4327 18.4135 10.3894 18.3748 10.36C18.3361 10.3307 18.2761 10.316 18.1948 10.316H17.8988V10.666ZM19.5034 11.518C19.3901 11.518 19.2841 11.504 19.1854 11.476C19.0867 11.448 19.0027 11.4094 18.9334 11.36L19.0254 11.116C19.0707 11.1467 19.1187 11.1727 19.1694 11.194C19.2201 11.2154 19.2734 11.232 19.3294 11.244C19.3854 11.2547 19.4441 11.26 19.5054 11.26C19.6014 11.26 19.6694 11.2454 19.7094 11.216C19.7507 11.1867 19.7714 11.1494 19.7714 11.104C19.7714 11.0627 19.7574 11.0314 19.7294 11.01C19.7027 10.9874 19.6534 10.968 19.5814 10.952L19.3454 10.904C19.2161 10.8774 19.1194 10.832 19.0554 10.768C18.9914 10.704 18.9594 10.6187 18.9594 10.512C18.9594 10.4214 18.9834 10.3427 19.0314 10.276C19.0794 10.2094 19.1467 10.1574 19.2334 10.12C19.3214 10.0827 19.4241 10.064 19.5414 10.064C19.6414 10.064 19.7347 10.078 19.8214 10.106C19.9081 10.134 19.9794 10.174 20.0354 10.226L19.9434 10.454C19.8887 10.41 19.8274 10.3774 19.7594 10.356C19.6927 10.3334 19.6181 10.322 19.5354 10.322C19.4487 10.322 19.3821 10.3374 19.3354 10.368C19.2901 10.3987 19.2674 10.4407 19.2674 10.494C19.2674 10.534 19.2814 10.5667 19.3094 10.592C19.3374 10.616 19.3867 10.6354 19.4574 10.65L19.6894 10.696C19.8214 10.7227 19.9194 10.7674 19.9834 10.83C20.0474 10.8927 20.0794 10.976 20.0794 11.08C20.0794 11.168 20.0554 11.2447 20.0074 11.31C19.9607 11.3754 19.8941 11.4267 19.8074 11.464C19.7221 11.5 19.6207 11.518 19.5034 11.518Z" fill="#027BCE"/>
<defs>
<clipPath id="clip0_179_149">
<rect width="8.13947" height="8.13947" fill="white" transform="translate(18.3137 12.2092)"/>
</clipPath>
</defs>
</svg>
